<svg width="29" height="29" viewBox="0 0 29 29" fill="none" xmlns="http://www.w3.org/2000/svg">
<path d="M24.2 5.47852H9.80039C8.47488 5.47852 7.40035 6.63267 7.40039 8.05637L7.40065 17.7229C7.40069 19.1465 8.47518 20.3005 9.80062 20.3006L24.2003 20.3007C25.5258 20.3007 26.6003 19.1477 26.6003 17.724L26.6 8.05536C26.6 6.63172 25.5255 5.47852 24.2 5.47852Z" fill="#E5E5FE"/>
<path d="M7.99993 9.98947H25.9999M9.80039 5.47852H24.2C25.5255 5.47852 26.6 6.63172 26.6 8.05536L26.6003 17.724C26.6003 19.1477 25.5258 20.3007 24.2003 20.3007L9.80062 20.3006C8.47518 20.3005 7.40069 19.1465 7.40065 17.7229L7.40039 8.05637C7.40035 6.63267 8.47488 5.47852 9.80039 5.47852Z" stroke="#3d1fab" stroke-width="2" stroke-linecap="round" stroke-linejoin="round"/>
<path d="M19.2 8.70117H4.80039C3.47488 8.70117 2.40035 9.85533 2.40039 11.279L2.40065 20.9455C2.40069 22.3691 3.47518 23.5232 4.80062 23.5232L19.2003 23.5234C20.5258 23.5234 21.6003 22.3704 21.6003 20.9467L21.6 11.278C21.6 9.85438 20.5255 8.70117 19.2 8.70117Z" fill="#E5E5FE"/>
<path d="M2.99993 13.2121H20.9999M4.80039 8.70117H19.2C20.5255 8.70117 21.6 9.85438 21.6 11.278L21.6003 20.9467C21.6003 22.3704 20.5258 23.5234 19.2003 23.5234L4.80062 23.5232C3.47518 23.5232 2.40069 22.3691 2.40065 20.9455L2.40039 11.279C2.40035 9.85533 3.47488 8.70117 4.80039 8.70117Z" stroke="#3d1fab" stroke-width="2" stroke-linecap="round" stroke-linejoin="round"/>
</svg>
