<svg width="60" height="61" viewBox="0 0 60 61" fill="none" xmlns="http://www.w3.org/2000/svg">
<rect x="12.9668" y="21.043" width="34.5531" height="38.2819" fill="white" fill-opacity="0.3"/>
<path d="M40.4742 34.9256C39.5 47 35.8555 37.5 30.158 37.5C24.4605 37.5 20.5 47 19.8418 34.9256C19.8418 29.2281 24.4605 24.6094 30.158 24.6094C35.8555 24.6094 40.4742 29.2281 40.4742 34.9256Z" fill="#3d1fab"/>
<circle cx="29.7229" cy="30.8186" r="3.09988" fill="white"/>
<path d="M44.6482 12.1586H34.149V10.7858L40.6821 0H32.4888L30.1609 3.84918L27.8292 0H19.6364L26.1695 10.7858V12.1586H15.6707C13.4434 12.1586 11.6309 13.9738 11.6309 16.205V56.5352C11.6309 58.7659 13.4434 60.5811 15.6707 60.5811H44.6489C46.8762 60.5811 48.6888 58.7659 48.6888 56.5352V16.205C48.6888 13.9738 46.8762 12.1586 44.6489 12.1586H44.6482ZM32.8863 11.2407V16.2723H27.4308V11.2407H32.8863ZM34.1487 17.5347V15.7233H34.1776C34.8284 15.7233 35.3575 16.2529 35.3575 16.9037C35.3575 17.5546 34.828 18.0841 34.1776 18.0841L26.1383 18.0832C25.4875 18.0832 24.9579 17.5537 24.9579 16.9029C24.9579 16.252 25.4874 15.7225 26.1383 15.7225H26.1689V17.5338L34.1487 17.5347ZM33.2001 1.26185H38.4414L37.4156 2.95576H33.8629V4.21768H36.6513L33.5177 9.39131L30.8985 5.06739L33.2001 1.26185ZM24.1014 4.93581H26.8V3.67389H23.3366L21.8757 1.26185H27.1175L32.3973 9.9783H27.1555L24.1014 4.93581ZM44.6476 59.3182H15.6694C14.1378 59.3182 12.8914 58.0692 12.8914 56.5341V21.6905H14.7847V20.4285H12.8914V16.2048C12.8914 14.6697 14.1373 13.4208 15.6694 13.4208L26.1681 13.4204V14.4604H26.1375C24.791 14.4604 23.6953 15.5562 23.6953 16.9026C23.6953 18.2491 24.7911 19.3448 26.1375 19.3448H34.1768C35.5234 19.3448 36.619 18.2491 36.619 16.9026C36.619 15.5562 35.5232 14.4604 34.1768 14.4604H34.1479V13.4204H44.6471C46.1787 13.4204 47.4251 14.6698 47.4251 16.2044V20.4281H46.3371V21.69H47.4247V56.5337C47.4247 58.0688 46.1788 59.3177 44.6471 59.3177L44.6476 59.3182Z" fill="white"/>
<path d="M42.5527 20.4258H45.077V21.6877H42.5527V20.4258Z" fill="white"/>
<path d="M16.0469 20.4258H18.5712V21.6877H16.0469V20.4258Z" fill="white"/>
<path d="M23.6191 20.4258H26.1434V21.6877H23.6191V20.4258Z" fill="white"/>
<path d="M19.834 20.4258H22.3583V21.6877H19.834V20.4258Z" fill="white"/>
<path d="M38.7637 20.4258H41.288V21.6877H38.7637V20.4258Z" fill="white"/>
<path d="M31.1934 20.4258H33.7176V21.6877H31.1934V20.4258Z" fill="white"/>
<path d="M27.4062 20.4258H29.9305V21.6877H27.4062V20.4258Z" fill="white"/>
<path d="M34.9766 20.4258H37.5008V21.6877H34.9766V20.4258Z" fill="white"/>
<ellipse cx="30.0856" cy="41.7536" rx="7.47618" ry="3.46457" fill="white" fill-opacity="0.3"/>
<path d="M30.1528 46.19C36.3376 46.19 41.2595 41.1454 41.2595 35.0833C41.2595 28.9588 36.277 23.9766 30.1528 23.9766C24.0324 23.9766 19.0527 28.9591 19.0527 35.0833C19.0532 41.1697 23.9705 46.19 30.1528 46.19ZM22.8563 41.6589C24.7134 39.5861 27.3424 38.4066 30.1528 38.4066C32.9671 38.4066 35.5988 39.5856 37.4559 41.6589C33.4975 46.0782 26.7188 45.9686 22.8568 41.6589H22.8563ZM30.1528 25.2391C35.5811 25.2391 39.9977 29.6554 39.9977 35.0841C39.9977 36.8293 39.5346 38.5413 38.6577 40.0358C38.5278 40.2585 38.3914 40.473 38.2494 40.6789C36.1615 38.4312 33.2605 37.1452 30.1528 37.1452C27.0485 37.1452 24.1488 38.4321 22.0613 40.6806C21.9146 40.47 21.7761 40.2547 21.6488 40.0363C20.7761 38.5383 20.3148 36.8263 20.3148 35.0841C20.3148 29.6553 24.728 25.2392 30.1529 25.2392L30.1528 25.2391Z" fill="white"/>
<path d="M30.1584 35.0003C32.2186 35.0003 33.8949 33.3241 33.8949 31.2638C33.8949 29.2036 32.2186 27.5273 30.1584 27.5273C28.0981 27.5273 26.4219 29.2036 26.4219 31.2638C26.4219 33.3241 28.0981 35.0003 30.1584 35.0003ZM30.1584 28.7892C31.523 28.7892 32.6326 29.8992 32.6326 31.2637C32.633 32.6284 31.523 33.738 30.1584 33.738C28.7937 33.738 27.6838 32.6279 27.6838 31.2637C27.6838 29.8995 28.7942 28.7892 30.1584 28.7892Z" fill="white"/>
<path d="M28.4531 48.3359H37.5558V49.5979H28.4531V48.3359Z" fill="white"/>
<path d="M16.3535 48.3359H25.0272V49.5979H16.3535V48.3359Z" fill="white"/>
<path d="M40.875 51.9766H43.552V53.2385H40.875V51.9766Z" fill="white"/>
<path d="M34.0215 51.9766H39.0545V53.2385H34.0215V51.9766Z" fill="white"/>
<path d="M16.3535 51.9766H32.454V53.2385H16.3535V51.9766Z" fill="white"/>
<path d="M31.5605 55.6211H43.5544V56.883H31.5605V55.6211Z" fill="white"/>
<path d="M21.5996 55.6211H29.9526V56.883H21.5996V55.6211Z" fill="white"/>
<path d="M16.3535 55.6211H20.1017V56.883H16.3535V55.6211Z" fill="white"/>
<path d="M50.3828 25.3828H51.6447V43.9791H50.3828V25.3828Z" fill="white"/>
<path d="M50.3828 21.5664H51.6447V23.6327H50.3828V21.5664Z" fill="white"/>
<path d="M1.26236 56.4336H0V59.3095H5.00183V58.0472H1.26225L1.26236 56.4336Z" fill="white"/>
<path d="M3.09961 29.9297H4.36153V31.2663H3.09961V29.9297Z" fill="white"/>
<path d="M3.09961 27.0039H4.36153V28.3405H3.09961V27.0039Z" fill="white"/>
<path d="M1.59961 28.5H2.93622V29.7619H1.59961V28.5Z" fill="white"/>
<path d="M4.52344 28.5H5.86004V29.7619H4.52344V28.5Z" fill="white"/>
<path d="M3.89258 44.7695H5.1545V46.1061H3.89258V44.7695Z" fill="white"/>
<path d="M3.89258 41.8438H5.1545V43.1804H3.89258V41.8438Z" fill="white"/>
<path d="M2.39453 43.3438H3.73114V44.6057H2.39453V43.3438Z" fill="white"/>
<path d="M5.32031 43.3438H6.65692V44.6057H5.32031V43.3438Z" fill="white"/>
<path d="M13.7617 6.41406H15.0236V7.75067H13.7617V6.41406Z" fill="white"/>
<path d="M13.7617 3.48828H15.0236V4.82489H13.7617V3.48828Z" fill="white"/>
<path d="M12.2617 4.99219H13.5983V6.25411H12.2617V4.99219Z" fill="white"/>
<path d="M15.1875 4.99219H16.5241V6.25411H15.1875V4.99219Z" fill="white"/>
<path d="M54.4395 11.4062H55.7014V12.7429H54.4395V11.4062Z" fill="white"/>
<path d="M54.4395 8.48047H55.7014V9.81707H54.4395V8.48047Z" fill="white"/>
<path d="M52.9375 9.98047H54.2741V11.2424H52.9375V9.98047Z" fill="white"/>
<path d="M55.8633 9.98047H57.1999V11.2424H55.8633V9.98047Z" fill="white"/>
<path d="M52.9766 55.5391H54.2385V56.8757H52.9766V55.5391Z" fill="white"/>
<path d="M52.9766 52.6094H54.2385V53.946H52.9766V52.6094Z" fill="white"/>
<path d="M51.4746 54.1094H52.8112V55.3713H51.4746V54.1094Z" fill="white"/>
<path d="M54.4023 54.1094H55.739V55.3713H54.4023V54.1094Z" fill="white"/>
<path d="M57.2383 35.0312H58.5002V36.3679H57.2383V35.0312Z" fill="white"/>
<path d="M57.2383 32.1055H58.5002V33.4421H57.2383V32.1055Z" fill="white"/>
<path d="M55.7383 33.6094H57.0749V34.8713H55.7383V33.6094Z" fill="white"/>
<path d="M58.6621 33.6094H59.9987V34.8713H58.6621V33.6094Z" fill="white"/>
<path d="M44.9648 1.46094H57.0626V2.72286H44.9648V1.46094Z" fill="white"/>
<path d="M52.541 4.19531H53.8029V5.45723H52.541V4.19531Z" fill="white"/>
<path d="M55.0645 4.19531H56.3264V5.45723H55.0645V4.19531Z" fill="white"/>
<path d="M44.9648 4.19531H46.2268V5.45723H44.9648V4.19531Z" fill="white"/>
<path d="M47.4902 4.19531H48.7522V5.45723H47.4902V4.19531Z" fill="white"/>
<path d="M50.0156 4.19531H51.2775V5.45723H50.0156V4.19531Z" fill="white"/>
<path d="M0.632812 14.8164H1.89473V16.0783H0.632812V14.8164Z" fill="white"/>
<path d="M8.20312 14.8164H9.29284V16.0783H8.20312V14.8164Z" fill="white"/>
<path d="M5.67969 14.8164H6.94161V16.0783H5.67969V14.8164Z" fill="white"/>
<path d="M3.1543 14.8164H4.41622V16.0783H3.1543V14.8164Z" fill="white"/>
<path d="M52.1445 47.3164H57.0666V48.5783H52.1445V47.3164Z" fill="white"/>
</svg>