<svg width="62" height="62" viewBox="0 0 62 62" fill="none" xmlns="http://www.w3.org/2000/svg">
<path d="M32.6606 4.53941C34.8749 4.89904 38.8061 7.49002 42.548 9.91815L53.3138 16.7564L34.8367 46.5317L14.2622 33.5334L32.6606 4.53941Z" fill="white" fill-opacity="0.3"/>
<path d="M35.1256 4.59387L35.9488 5.66345L34.8555 5.91626L34.2033 5.29714L35.1256 4.59387Z" fill="#D7DFFF"/>
<path d="M39.0375 6.97904L39.8607 8.04861L38.7674 8.30143L39.0375 6.97904Z" fill="#D7DFFF"/>
<path d="M42.7484 9.41263L43.5716 10.4822L42.4783 10.735L42.7484 9.41263Z" fill="#D7DFFF"/>
<path d="M47.5648 12.0767L48.388 13.1463L47.2947 13.3991L47.5648 12.0767Z" fill="#D7DFFF"/>
<path d="M47.2738 11.7251L48.097 12.7947L47.0037 13.0475L47.2738 11.7251Z" fill="#D7DFFF"/>
<path d="M46.764 11.6353L47.5872 12.7049L46.4939 12.9577L46.764 11.6353Z" fill="#D7DFFF"/>
<path d="M46.2972 11.7408L47.1204 12.8103L46.0271 13.0631L46.2972 11.7408Z" fill="#D7DFFF"/>
<path d="M51.2054 14.8033L52.0286 15.8728L50.9353 16.1256L51.2054 14.8033Z" fill="#D7DFFF"/>
<rect x="47.7812" y="21.0625" width="2.79607" height="3.95541" transform="rotate(-13.0203 47.7812 21.0625)" fill="white"/>
<path d="M30.7174 43.1484C30.3468 42.9111 29.8542 43.0192 29.6168 43.3898C29.3795 43.7604 29.4876 44.2531 29.8582 44.4904L32.5357 46.2093C32.9063 46.4466 33.399 46.3385 33.6363 45.9679C33.8736 45.5973 33.7655 45.1046 33.3949 44.8673L30.7174 43.1484Z" fill="white"/>
<path d="M20.0049 36.2657C19.6343 36.0284 19.1416 36.1362 18.9039 36.5068C18.6666 36.8774 18.7748 37.3704 19.1454 37.6078L21.823 39.3273L21.8231 39.3277C22.1937 39.565 22.6864 39.4572 22.9241 39.0866C23.1614 38.716 23.0536 38.2229 22.683 37.9855L20.0049 36.2657Z" fill="white"/>
<path d="M25.361 39.7069C24.9905 39.47 24.4982 39.578 24.2612 39.9485C24.0239 40.3191 24.1323 40.8117 24.5028 41.0487L27.1807 42.7692C27.5513 43.0065 28.044 42.8984 28.2813 42.5278C28.5186 42.1572 28.4105 41.6645 28.0399 41.4272L25.361 39.7069Z" fill="white"/>
<path d="M52.0004 13.5296L49.6749 14.0674L48.9579 10.9667C48.9104 10.7611 48.7831 10.5827 48.6041 10.471C48.4252 10.3593 48.209 10.3232 48.0035 10.3707L44.9028 11.0878L44.365 8.76223C44.3175 8.55667 44.1902 8.3783 44.0112 8.26657C43.8323 8.15484 43.6161 8.11878 43.4106 8.16631L41.0851 8.70407L40.5473 6.37854C40.4998 6.17299 40.3725 5.99461 40.1935 5.88288C40.0146 5.77115 39.7984 5.73509 39.5929 5.78262L37.2674 6.32038L36.7296 3.99486C36.6821 3.7893 36.5548 3.61093 36.3758 3.4992C36.1969 3.38746 35.9807 3.3514 35.7752 3.39894L31.8993 4.2952C31.6964 4.34175 31.5199 4.4657 31.4076 4.64077L7.39147 42.0426C7.27608 42.2231 7.23867 42.4429 7.28727 42.6515L8.18353 46.5273C8.23107 46.7329 8.35835 46.9113 8.5373 47.023C8.71626 47.1347 8.9324 47.1708 9.13796 47.1233L11.4635 46.5855L12.0012 48.911C12.0488 49.1166 12.1761 49.295 12.355 49.4067C12.534 49.5184 12.7501 49.5545 12.9557 49.507L15.2812 48.9692L15.9982 52.0699C16.0457 52.2755 16.173 52.4538 16.352 52.5656C16.5309 52.6773 16.7471 52.7133 16.9526 52.6658L19.2781 52.1281L19.8159 54.4536C19.8634 54.6591 19.9907 54.8375 20.1697 54.9492C20.3486 55.061 20.5648 55.097 20.7703 55.0495L23.0958 54.5117L23.8128 57.6124C23.8604 57.818 23.9877 57.9964 24.1666 58.1081C24.3456 58.2198 24.5617 58.2559 24.7673 58.2084L28.6431 57.3121C28.846 57.2655 29.0226 57.1416 29.1349 56.9665L48.8844 26.1855L51.6311 25.9226C51.6662 25.9196 51.7009 25.9137 51.7352 25.9058C51.9534 25.8564 52.1404 25.7173 52.251 25.5226C52.3614 25.3283 52.3846 25.0961 52.3153 24.8832C51.8819 23.7564 51.7717 22.5306 51.9968 21.3444L53.7471 18.609C53.8621 18.4285 53.9 18.2094 53.8514 18.0008L52.9551 14.125C52.9076 13.9194 52.7803 13.741 52.6014 13.6293C52.4224 13.5176 52.206 13.4821 52.0004 13.5296ZM50.5327 24.43L48.5937 24.6145C48.2884 23.6304 48.2496 22.5829 48.4819 21.5787L50.3587 21.3962C50.2175 22.4092 50.2765 23.44 50.5327 24.43ZM52.2254 18.0339L51.1455 19.7207L47.8475 20.0433C47.5986 20.0673 47.3757 20.2071 47.2453 20.4202C47.1306 20.6101 46.155 22.3523 47.2597 25.7169C47.2624 25.7287 47.2714 25.7361 47.2757 25.7468L27.9688 55.8346L25.1836 56.4787L24.4666 53.378C24.4191 53.1724 24.2918 52.9941 24.1129 52.8823C23.9339 52.7706 23.7178 52.7345 23.5122 52.7821L21.1867 53.3198L20.6489 50.9943C20.6014 50.7888 20.4741 50.6104 20.2952 50.4986C20.1162 50.3869 19.9001 50.3509 19.6945 50.3984L17.369 50.9361L16.652 47.8354C16.6044 47.6299 16.4772 47.4515 16.2982 47.3398C16.1193 47.228 15.9031 47.192 15.6976 47.2395L13.372 47.7773L12.8343 45.4518C12.7867 45.2462 12.6595 45.0678 12.4805 44.9561C12.3015 44.8444 12.0854 44.8083 11.8798 44.8558L9.55433 45.3936L8.91293 42.6199L14.1804 34.4164L16.4658 35.8839C16.8364 36.1212 17.3291 36.0131 17.5661 35.6426C17.8034 35.272 17.6953 34.7793 17.3247 34.542L15.0398 33.0736L32.5729 5.77203L35.3581 5.12799L35.8958 7.45351C35.9434 7.65907 36.0706 7.83744 36.2496 7.94918C36.4286 8.06091 36.6447 8.09697 36.8503 8.04943L39.1758 7.51168L39.7135 9.8372C39.7611 10.0428 39.8883 10.2211 40.0673 10.3329C40.2463 10.4446 40.4624 10.4807 40.668 10.4331L42.9935 9.89537L43.5312 12.2209C43.5788 12.4264 43.706 12.6048 43.885 12.7166C44.064 12.8283 44.2801 12.8643 44.4857 12.8168L47.5864 12.0998L48.3034 15.2005C48.3509 15.4061 48.4782 15.5844 48.6571 15.6962C48.8361 15.8079 49.0522 15.8439 49.2578 15.7964L51.5833 15.2587L52.2254 18.0339Z" fill="white"/>
<circle cx="34.325" cy="24.3116" r="9.03699" transform="rotate(-13.0203 34.325 24.3116)" fill="#3d1fab"/>
<path d="M32.2917 14.8236C31.2955 15.0529 30.3386 15.4287 29.453 15.939C29.0725 16.1586 28.9418 16.6453 29.1615 17.0261C29.3815 17.4065 29.868 17.5368 30.2485 17.3172C30.9982 16.8858 31.8073 16.5678 32.6502 16.374C34.7452 15.8392 36.967 16.1567 38.8288 17.257C40.6902 18.3569 42.04 20.1502 42.582 22.2436C43.014 24.3624 42.5884 26.5662 41.399 28.3716C40.2092 30.1775 38.3524 31.4382 36.2352 31.8775C34.1402 32.4122 31.9183 32.0948 30.0565 30.9945C28.1951 29.8945 26.8454 28.1012 26.3033 26.0079C25.7253 23.415 26.496 20.7052 28.3526 18.8048C28.6561 18.4868 28.6441 17.9828 28.3257 17.6794C28.0077 17.376 27.5037 17.3879 27.2003 17.706C24.9736 19.9938 24.0531 23.2515 24.753 26.3663C25.3901 28.8708 26.9943 31.0205 29.214 32.3442C31.4333 33.6677 34.0875 34.0576 36.5937 33.4277C39.122 32.8934 41.3355 31.3779 42.7485 29.2144C44.1617 27.0506 44.6594 24.4149 44.1323 21.885C43.4952 19.3805 41.891 17.2308 39.6713 15.9071C37.452 14.5836 34.7978 14.1937 32.2916 14.8236L32.2917 14.8236Z" fill="white"/>
<path d="M39.5745 20.1451C39.4452 19.9785 39.255 19.8701 39.0457 19.8434C38.8362 19.8171 38.625 19.8747 38.458 20.0041L29.4563 26.9854C29.2897 27.1147 29.1813 27.3049 29.1546 27.5142C29.1283 27.7237 29.1859 27.9349 29.3153 28.1019C29.5844 28.449 30.0842 28.5121 30.4317 28.2429L39.4334 21.2616C39.6 21.1323 39.7084 20.9421 39.7352 20.7328C39.7614 20.5233 39.7038 20.3121 39.5745 20.1451L39.5745 20.1451Z" fill="white"/>
<path d="M31.847 18.1927C31.2303 18.3353 30.6951 18.7172 30.36 19.254C30.0249 19.7909 29.9166 20.4393 30.0592 21.0559C30.2018 21.6725 30.5837 22.2078 31.1205 22.5429C31.6574 22.878 32.3059 22.9863 32.9225 22.8437C33.539 22.7011 34.0743 22.3192 34.4094 21.7824C34.7445 21.2455 34.8528 20.597 34.7102 19.9805C34.5676 19.3639 34.1857 18.8286 33.6489 18.4935C33.112 18.1584 32.4636 18.0501 31.847 18.1927ZM32.564 21.2934C32.2504 21.3659 31.924 21.2424 31.7373 20.9804C31.5502 20.7185 31.5393 20.37 31.7098 20.0968C31.8803 19.8237 32.1983 19.6806 32.5157 19.7337C32.8331 19.7864 33.0874 20.0255 33.1599 20.339C33.2074 20.5445 33.1714 20.7607 33.0596 20.9396C32.9479 21.1186 32.7695 21.2459 32.564 21.2934Z" fill="white"/>
<path d="M34.1784 28.2708C34.321 28.8875 34.7028 29.4226 35.2397 29.7577C35.7765 30.0929 36.425 30.2011 37.0416 30.0585C37.6582 29.9159 38.1934 29.5341 38.5285 28.9972C38.8637 28.4604 38.9719 27.8119 38.8293 27.1953C38.6867 26.5787 38.3049 26.0435 37.768 25.7084C37.2312 25.3732 36.5827 25.265 35.9661 25.4076C35.3495 25.5501 34.8143 25.932 34.4792 26.4689C34.144 27.0057 34.0358 27.6542 34.1784 28.2708ZM37.2791 27.5538C37.3516 27.8673 37.228 28.1937 36.966 28.3804C36.7042 28.5675 36.3556 28.5785 36.0825 28.4079C35.8094 28.2374 35.6662 27.9195 35.7193 27.602C35.7721 27.2847 36.0111 27.0304 36.3246 26.9579C36.5302 26.9103 36.7463 26.9464 36.9253 27.0581C37.1042 27.1699 37.2315 27.3482 37.2791 27.5538Z" fill="white"/>
<path d="M1.2324 14.5629C1.24646 14.567 2.67061 14.9949 3.9466 17.4923L3.94625 17.4924C4.05609 17.7073 4.25748 17.8608 4.49372 17.9097C4.606 17.9334 4.72242 17.9323 4.83411 17.9061C4.95452 17.8797 5.0667 17.8257 5.1626 17.7485L7.90479 15.4812C8.19386 15.243 8.27743 14.835 8.10567 14.5021C6.49385 11.3456 4.5752 10.8034 4.36124 10.7515C4.11801 10.6929 3.86123 10.7523 3.66843 10.9117L0.926236 13.1791C0.700218 13.3699 0.598301 13.6702 0.662116 13.9587C0.726833 14.2496 0.945618 14.4816 1.23238 14.5629L1.2324 14.5629ZM4.307 12.448C5.1829 12.9928 5.89902 13.7594 6.38297 14.6701L4.8808 15.9118C4.36091 15.032 3.67304 14.2629 2.85645 13.6481L4.307 12.448Z" fill="white"/>
<path d="M45.3924 50.0911C45.5125 50.1184 45.637 50.1177 45.7567 50.0885C45.8686 50.063 45.9737 50.0129 46.0642 49.9424C46.255 49.7947 46.3685 49.5683 46.3728 49.327C46.4225 46.5226 47.5147 45.5133 47.5136 45.5135C47.7466 45.3215 47.8506 45.0142 47.7826 44.7204C47.7147 44.4265 47.4864 44.1961 47.1927 44.1258L43.7335 43.2925C43.4903 43.2339 43.2335 43.2933 43.0407 43.4527C42.8716 43.5931 41.3856 44.9222 41.3229 48.4664C41.3166 48.8394 41.5698 49.1665 41.9324 49.254L45.3924 50.0911ZM43.8342 44.9531L45.6668 45.3941C45.203 46.3048 44.9226 47.2979 44.8414 48.3167L42.9466 47.8605L42.9469 47.8605C42.9814 46.8303 43.2876 45.8273 43.8342 44.9531L43.8342 44.9531Z" fill="white"/>
<path d="M46.297 2.12273L43.5548 4.39009C43.3287 4.58054 43.2271 4.88073 43.291 5.16964C43.3553 5.46027 43.5741 5.69222 43.8607 5.77287C43.8748 5.77691 45.2991 6.20548 46.5752 8.70332L46.5751 8.70298C46.6849 8.91783 46.886 9.07149 47.1225 9.12031C47.3588 9.16922 47.6043 9.10843 47.7904 8.95458L50.5326 6.68722C50.8199 6.44943 50.9038 6.04432 50.734 5.7121C49.1222 2.55551 47.2035 2.01335 46.9898 1.96254L46.9901 1.96246C46.7469 1.90386 46.4901 1.96324 46.297 2.12274L46.297 2.12273ZM49.0113 5.88039L47.51 7.12584L47.5103 7.12541C46.99 6.2457 46.3024 5.47618 45.4858 4.86118L46.9371 3.66156C47.8111 4.20608 48.5258 4.97158 49.0091 5.88056L49.0113 5.88039Z" fill="white"/>
<path d="M5.38675 32.9312C5.39876 32.9343 6.63475 33.3131 7.74698 35.4886C7.9132 35.8133 8.27913 35.9832 8.63418 35.9011C8.75507 35.872 8.8673 35.8151 8.9617 35.7345L11.3945 33.7185C11.6815 33.4808 11.7649 33.0754 11.5952 32.7435C10.1441 29.9081 8.40264 29.4183 8.20899 29.3756C7.96534 29.3167 7.70821 29.3762 7.51514 29.536L5.08237 31.5521C4.85773 31.7426 4.75662 32.0416 4.81949 32.3292C4.8845 32.6183 5.10193 32.8491 5.38669 32.9312L5.38675 32.9312ZM8.14996 31.0732C8.868 31.5361 9.45967 32.1699 9.8719 32.9182L8.67595 33.9093C8.23359 33.1866 7.66478 32.5492 6.99637 32.0283L8.14996 31.0732Z" fill="white"/>
<path d="M51.6997 38.3895C51.866 38.7142 52.2319 38.8841 52.5869 38.8016C52.7078 38.7729 52.8198 38.7164 52.9146 38.6361L55.3474 36.6201C55.6344 36.3824 55.7178 35.977 55.5481 35.6451C54.097 32.8097 52.3548 32.3168 52.1603 32.2703C51.9153 32.2103 51.6564 32.2701 51.4627 32.4316L49.0299 34.4477C48.8052 34.6381 48.704 34.9368 48.767 35.2248C48.8317 35.5142 49.0493 35.7457 49.3346 35.8285C49.3516 35.8359 50.5876 36.2147 51.6997 38.3895L51.6997 38.3895ZM52.1032 33.9747L52.1029 33.9747C52.8209 34.4376 53.4126 35.0714 53.8248 35.8197L52.6289 36.8108C52.1865 36.0881 51.6177 35.4508 50.9493 34.9298L52.1032 33.9747Z" fill="white"/>
<path d="M17.5898 15.458C17.4292 15.2032 17.1389 15.061 16.8391 15.0903L13.3012 15.4348C13.053 15.4572 12.8299 15.5963 12.7009 15.8095C12.5856 15.9995 11.607 17.7351 12.7135 21.1073C12.8298 21.4607 13.1757 21.6858 13.5458 21.6498L17.0838 21.3053L17.0841 21.3052C17.1184 21.302 17.1525 21.2967 17.1864 21.2888C17.4047 21.2395 17.5916 21.1004 17.7023 20.9056C17.8125 20.711 17.8358 20.4788 17.7666 20.2662C16.9004 17.6083 17.5998 16.2928 17.5992 16.293C17.7539 16.0351 17.7503 15.7122 17.5898 15.4581L17.5898 15.458ZM15.9842 19.8151L14.046 20.0037L14.0457 20.0038C13.7397 19.021 13.7011 17.9744 13.9341 16.972L15.8094 16.7891C15.6694 17.7996 15.7289 18.8279 15.9849 19.8149L15.9842 19.8151Z" fill="white"/>
</svg>
