<svg width="526" height="620" viewBox="0 0 526 620" fill="none" xmlns="http://www.w3.org/2000/svg">
<path d="M68.75 165.262C68.75 148.367 82.4459 134.671 99.3406 134.671H426.659C443.554 134.671 457.25 148.367 457.25 165.262V376.337C457.25 393.231 443.554 406.927 426.659 406.927H80.9862C74.2283 406.927 68.75 401.449 68.75 394.691V165.262Z" fill="#3D1FAB"/>
<rect x="84.0449" y="156.085" width="357.909" height="91.7717" rx="24.4724" fill="#D24E3E"/>
<rect x="84.0449" y="186.675" width="357.909" height="91.7717" rx="24.4724" fill="#EAB840"/>
<rect x="84.0449" y="220.325" width="357.909" height="91.7717" rx="24.4724" fill="#55A059"/>
<path fill-rule="evenodd" clip-rule="evenodd" d="M223.546 264.681H68.75V394.691C68.75 401.449 74.2283 406.927 80.9862 406.927H426.659C443.554 406.927 457.25 393.231 457.25 376.337V264.681H302.454C297.239 281.515 281.548 293.742 263 293.742C244.452 293.742 228.761 281.515 223.546 264.681Z" fill="#3D1FAB"/>
<path d="M68.75 148.115C68.75 138.668 73.1144 129.751 80.5747 123.956L210.443 23.0764C222.501 13.71 240.057 22.3031 240.057 37.5714V257.356C240.057 266.802 235.693 275.719 228.232 281.514L73.6856 401.564C71.676 403.125 68.75 401.692 68.75 399.148V148.115Z" fill="#866BEB"/>
<path d="M8.18326 584.927V521.799H20.6335V537.172L19.1137 535.185C19.8931 533.08 20.9258 531.171 22.2117 529.456C23.5366 527.703 25.1148 526.261 26.9463 525.131C28.505 524.079 30.2196 523.261 32.0901 522.676C33.9995 522.053 35.9479 521.682 37.9352 521.565C39.9226 521.41 41.8515 521.488 43.722 521.799V534.951C41.8515 534.405 39.6888 534.23 37.2338 534.425C34.8178 534.62 32.6356 535.302 30.6872 536.471C28.7388 537.523 27.1411 538.867 25.8942 540.504C24.6862 542.141 23.7899 544.011 23.2054 546.115C22.6209 548.181 22.3286 550.421 22.3286 552.837V584.927H8.18326ZM80.0964 586.681C73.7056 586.681 68.0942 585.297 63.2622 582.531C58.4302 579.764 54.6503 575.926 51.9226 571.016C49.2338 566.106 47.8894 560.455 47.8894 554.065C47.8894 547.167 49.2143 541.186 51.8641 536.12C54.5139 531.015 58.1964 527.06 62.9115 524.254C67.6266 521.449 73.0821 520.046 79.278 520.046C85.8246 520.046 91.3776 521.585 95.9368 524.663C100.535 527.703 103.945 532.009 106.166 537.581C108.387 543.154 109.225 549.72 108.679 557.28H94.7093V552.136C94.6703 545.277 93.4623 540.27 91.0853 537.114C88.7083 533.957 84.9673 532.379 79.8626 532.379C74.0953 532.379 69.8088 534.172 67.0031 537.757C64.1975 541.303 62.7946 546.505 62.7946 553.363C62.7946 559.754 64.1975 564.703 67.0031 568.21C69.8088 571.717 73.9005 573.471 79.278 573.471C82.7462 573.471 85.7272 572.711 88.2212 571.191C90.7541 569.632 92.7025 567.392 94.0663 564.469L107.978 568.678C105.562 574.367 101.821 578.79 96.7551 581.946C91.7283 585.103 86.1753 586.681 80.0964 586.681ZM58.3523 557.28V546.641H101.782V557.28H58.3523ZM146.797 586.681C140.29 586.681 134.737 585.239 130.138 582.355C125.54 579.433 122.014 575.458 119.559 570.431C117.143 565.404 115.915 559.715 115.876 553.363C115.915 546.895 117.182 541.166 119.676 536.178C122.208 531.152 125.794 527.216 130.431 524.371C135.068 521.488 140.582 520.046 146.973 520.046C154.143 520.046 160.202 521.858 165.151 525.482C170.139 529.067 173.393 533.977 174.913 540.212L160.884 544.011C159.793 540.621 157.981 537.99 155.448 536.12C152.915 534.211 150.032 533.256 146.797 533.256C143.134 533.256 140.114 534.133 137.737 535.886C135.36 537.601 133.607 539.978 132.477 543.017C131.346 546.057 130.781 549.505 130.781 553.363C130.781 559.364 132.126 564.216 134.815 567.918C137.503 571.62 141.498 573.471 146.797 573.471C150.538 573.471 153.48 572.613 155.623 570.899C157.806 569.184 159.442 566.71 160.533 563.475L174.913 566.69C172.964 573.12 169.554 578.069 164.683 581.537C159.812 584.966 153.85 586.681 146.797 586.681ZM200.913 586.681C196.353 586.681 192.496 585.824 189.339 584.109C186.183 582.355 183.786 580.037 182.15 577.153C180.552 574.27 179.753 571.094 179.753 567.626C179.753 564.586 180.26 561.858 181.273 559.442C182.286 556.987 183.845 554.883 185.949 553.129C188.053 551.337 190.781 549.876 194.132 548.746C196.665 547.927 199.627 547.187 203.017 546.524C206.446 545.862 210.148 545.258 214.123 544.712C218.136 544.128 222.325 543.504 226.69 542.842L221.663 545.706C221.702 541.342 220.728 538.127 218.74 536.062C216.753 533.996 213.402 532.964 208.687 532.964C205.842 532.964 203.095 533.626 200.445 534.951C197.795 536.276 195.944 538.555 194.892 541.79L182.033 537.757C183.591 532.418 186.553 528.132 190.917 524.897C195.321 521.663 201.244 520.046 208.687 520.046C214.298 520.046 219.228 520.961 223.475 522.793C227.762 524.624 230.937 527.625 233.003 531.795C234.133 534.016 234.815 536.295 235.048 538.633C235.282 540.933 235.399 543.446 235.399 546.174V584.927H223.066V571.25L225.112 573.471C222.267 578.03 218.935 581.381 215.116 583.524C211.337 585.629 206.602 586.681 200.913 586.681ZM203.718 575.458C206.914 575.458 209.641 574.893 211.902 573.763C214.162 572.633 215.954 571.25 217.279 569.613C218.643 567.976 219.559 566.437 220.026 564.995C220.767 563.203 221.176 561.157 221.254 558.858C221.371 556.52 221.429 554.63 221.429 553.188L225.755 554.474C221.507 555.136 217.864 555.721 214.824 556.227C211.785 556.734 209.174 557.221 206.992 557.689C204.809 558.117 202.881 558.604 201.205 559.15C199.568 559.735 198.185 560.416 197.055 561.196C195.925 561.975 195.048 562.871 194.424 563.885C193.84 564.898 193.548 566.086 193.548 567.45C193.548 569.009 193.937 570.392 194.717 571.6C195.496 572.769 196.626 573.704 198.107 574.406C199.627 575.107 201.497 575.458 203.718 575.458ZM248.279 584.927V521.799H260.729V537.172L259.209 535.185C259.989 533.08 261.021 531.171 262.307 529.456C263.632 527.703 265.21 526.261 267.042 525.131C268.6 524.079 270.315 523.261 272.185 522.676C274.095 522.053 276.043 521.682 278.031 521.565C280.018 521.41 281.947 521.488 283.817 521.799V534.951C281.947 534.405 279.784 534.23 277.329 534.425C274.913 534.62 272.731 535.302 270.783 536.471C268.834 537.523 267.237 538.867 265.99 540.504C264.782 542.141 263.885 544.011 263.301 546.115C262.716 548.181 262.424 550.421 262.424 552.837V584.927H248.279ZM316.802 586.681C310.995 586.681 305.93 585.22 301.604 582.297C297.279 579.374 293.927 575.4 291.55 570.373C289.173 565.346 287.985 559.676 287.985 553.363C287.985 546.973 289.173 541.283 291.55 536.295C293.966 531.268 297.376 527.313 301.779 524.43C306.183 521.507 311.366 520.046 317.328 520.046C323.329 520.046 328.356 521.507 332.408 524.43C336.5 527.313 339.598 531.268 341.702 536.295C343.806 541.322 344.858 547.011 344.858 553.363C344.858 559.637 343.806 565.307 341.702 570.373C339.598 575.4 336.461 579.374 332.291 582.297C328.122 585.22 322.959 586.681 316.802 586.681ZM318.964 574.055C322.744 574.055 325.784 573.198 328.083 571.483C330.421 569.73 332.116 567.294 333.168 564.177C334.259 561.059 334.805 557.455 334.805 553.363C334.805 549.233 334.259 545.628 333.168 542.55C332.116 539.432 330.46 537.016 328.2 535.302C325.94 533.548 323.017 532.671 319.432 532.671C315.652 532.671 312.535 533.607 310.08 535.477C307.625 537.308 305.813 539.802 304.644 542.959C303.475 546.076 302.89 549.544 302.89 553.363C302.89 557.221 303.455 560.728 304.585 563.885C305.754 567.002 307.527 569.476 309.904 571.308C312.281 573.139 315.301 574.055 318.964 574.055ZM334.805 584.927V540.621H333.051V500.757H347.255V584.927H334.805Z" fill="black"/>
<path d="M437.117 584.927V546.583C437.117 542.257 436.046 538.887 433.903 536.471C431.759 534.016 428.856 532.788 425.193 532.788C422.933 532.788 420.907 533.314 419.114 534.366C417.322 535.38 415.899 536.899 414.847 538.926C413.795 540.913 413.269 543.29 413.269 546.057L407.015 542.374C406.976 538.01 407.95 534.172 409.937 530.859C411.964 527.508 414.691 524.897 418.121 523.027C421.55 521.156 425.369 520.221 429.577 520.221C436.552 520.221 441.891 522.325 445.593 526.534C449.334 530.703 451.204 536.198 451.204 543.017V584.927H437.117ZM361.188 584.927V521.799H373.639V541.381H375.392V584.927H361.188ZM399.241 584.927V546.758C399.241 542.355 398.169 538.926 396.026 536.471C393.883 534.016 390.96 532.788 387.258 532.788C383.673 532.788 380.789 534.016 378.607 536.471C376.464 538.926 375.392 542.121 375.392 546.057L369.079 541.848C369.079 537.757 370.093 534.074 372.119 530.801C374.145 527.528 376.873 524.956 380.302 523.085C383.77 521.176 387.648 520.221 391.934 520.221C396.649 520.221 400.585 521.234 403.741 523.261C406.937 525.248 409.314 527.976 410.873 531.444C412.47 534.873 413.269 538.75 413.269 543.076V584.927H399.241ZM491.784 586.681C485.394 586.681 479.782 585.297 474.95 582.531C470.118 579.764 466.338 575.926 463.611 571.016C460.922 566.106 459.577 560.455 459.577 554.065C459.577 547.167 460.902 541.186 463.552 536.12C466.202 531.015 469.884 527.06 474.6 524.254C479.315 521.449 484.77 520.046 490.966 520.046C497.513 520.046 503.066 521.585 507.625 524.663C512.223 527.703 515.633 532.009 517.854 537.581C520.075 543.154 520.913 549.72 520.367 557.28H506.397V552.136C506.358 545.277 505.15 540.27 502.773 537.114C500.396 533.957 496.655 532.379 491.551 532.379C485.783 532.379 481.497 534.172 478.691 537.757C475.886 541.303 474.483 546.505 474.483 553.363C474.483 559.754 475.886 564.703 478.691 568.21C481.497 571.717 485.589 573.471 490.966 573.471C494.434 573.471 497.415 572.711 499.909 571.191C502.442 569.632 504.391 567.392 505.754 564.469L519.666 568.678C517.25 574.367 513.509 578.79 508.443 581.946C503.416 585.103 497.863 586.681 491.784 586.681ZM470.04 557.28V546.641H513.47V557.28H470.04Z" fill="#866BEB"/>
</svg>
