<svg width="24" height="25" viewBox="0 0 24 25" fill="none" xmlns="http://www.w3.org/2000/svg">
<path d="M3.34903 23.0235H20.6508C21.3959 23.0235 22 22.583 22 22.0397V17.3037C22 15.5369 20.4555 13.9744 18.1569 13.4157C18.1464 13.4132 16.5997 13.067 16.5997 13.067C15.9456 12.9203 15.2439 13.1548 14.9685 13.6119L13.1861 16.5719L12.7252 15.0752L13.6782 13.8716C13.8057 13.7104 13.8057 13.512 13.6782 13.3508C13.5506 13.1897 13.3146 13.0904 13.0595 13.0904H10.9405C10.6854 13.0904 10.4494 13.1897 10.3218 13.3508C10.1943 13.512 10.1943 13.7104 10.3218 13.8716L11.2748 15.0752L10.8139 16.5719L9.03152 13.6119C8.75627 13.1548 8.05489 12.9206 7.40032 13.067C7.40032 13.067 5.85342 13.4131 5.84312 13.4157C3.54449 13.9744 2 15.5369 2 17.3037V22.0397C1.99984 22.583 2.6039 23.0235 3.34903 23.0235ZM16 15.0752L17.3173 15.2856C18.5048 15.5791 19.3016 16.3888 19.3016 17.3037V21.0559H13.0595L16 15.0752ZM4.69839 17.3038C4.69839 16.3889 5.49517 15.5792 6.68269 15.2857L8 15.0752L10.9405 21.0561H4.69839V17.3038Z" fill="#3d1fab"/>
<path d="M12.0045 11.8424C14.5077 11.8424 16.5442 9.8591 16.5442 7.42125C16.5442 4.9834 14.5077 3 12.0045 3C9.5013 3 7.46484 4.98327 7.46484 7.42112C7.46484 9.85898 9.5013 11.8424 12.0045 11.8424ZM12.0045 5.10234C13.3175 5.10234 14.3855 6.14248 14.3855 7.42112C14.3855 8.69977 13.3175 9.73991 12.0045 9.73991C10.6916 9.73991 9.62356 8.69977 9.62356 7.42112C9.62356 6.14248 10.6916 5.10234 12.0045 5.10234Z" fill="#3d1fab"/>
</svg>
